<svg width="16" height="16" viewBox="0 0 16 16" xmlns="http://www.w3.org/2000/svg"><title>search</title><path d="M7.107 12.735c1.394 0 2.69-.514 3.668-1.38l3.028 3.033c.08.08.176.112.288.112.114 0 .21-.032.29-.112.16-.16.16-.418 0-.562l-3.044-3.033c.85-.98 1.378-2.263 1.378-3.676C12.714 4.02 10.2 1.5 7.107 1.5S1.5 4.02 1.5 7.117c0 3.098 2.515 5.618 5.607 5.618zm0-10.433c2.643 0 4.806 2.167 4.806 4.815 0 2.648-2.163 4.815-4.806 4.815-2.643 0-4.806-2.167-4.806-4.815 0-2.648 2.164-4.815 4.807-4.815z" fill-rule="nonzero" fill="#707473"/></svg>