<?xml version="1.0" encoding="UTF-8"?>
<svg width="60px" height="48px" viewBox="0 0 60 48" version="1.1" xmlns="http://www.w3.org/2000/svg" xmlns:xlink="http://www.w3.org/1999/xlink">
    <!-- Generator: Sketch 45.2 (43514) - http://www.bohemiancoding.com/sketch -->
    <title>ic_Industrial</title>
    <desc>Created with Sketch.</desc>
    <defs></defs>
    <g id="Page-1" stroke="none" stroke-width="1" fill="none" fill-rule="evenodd">
        <g id="ic_front_商城首页80%缩小版" transform="translate(-1710.000000, -114.000000)">
            <path d="M1740.22559,136.277778 L1742.4232,136.277778 L1742.4232,134.666667 L1740.22559,134.666667 L1740.22559,136.277778 Z M1737.62843,136.277778 L1739.82603,136.277778 L1739.82603,134.666667 L1737.62843,134.666667 L1737.62843,136.277778 Z M1743.0625,136.277778 L1742.82276,136.277778 L1742.82276,134.666667 L1743.20315,134.666667 C1743.21593,134.666667 1743.22872,134.665056 1743.24151,134.661833 L1746.29817,133.891722 C1746.3693,133.874 1746.41884,133.809556 1746.41884,133.735444 L1746.41884,132.375667 C1746.41884,132.301556 1746.3693,132.237111 1746.29817,132.219389 L1743.24151,131.449278 C1743.22872,131.446056 1743.21593,131.444444 1743.20315,131.444444 L1743.19676,131.444444 L1742.5183,130.782278 C1742.45916,130.692056 1742.35927,130.638889 1742.25298,130.638889 L1740.22559,130.638889 L1740.22559,126.403278 C1740.15927,126.405694 1740.09214,126.409722 1740.02581,126.409722 C1739.95948,126.409722 1739.89316,126.405694 1739.82603,126.403278 L1739.82603,130.638889 L1737.79944,130.638889 C1737.69315,130.638889 1737.59326,130.692056 1737.53413,130.782278 L1736.85567,131.444444 L1736.84927,131.444444 C1736.83649,131.444444 1736.8237,131.446056 1736.81092,131.449278 L1733.75425,132.219389 C1733.68313,132.237111 1733.63278,132.301556 1733.63278,132.375667 L1733.63278,133.735444 C1733.63278,133.809556 1733.68313,133.874 1733.75425,133.891722 L1736.81092,134.661833 C1736.8237,134.665056 1736.83649,134.666667 1736.84927,134.666667 L1737.22886,134.666667 L1737.22886,136.277778 L1736.98992,136.277778 C1736.90122,136.277778 1736.8293,136.350278 1736.8293,136.438889 L1736.8293,136.519444 C1736.8293,136.608056 1736.90122,136.680556 1736.98992,136.680556 L1737.22886,136.680556 L1737.22886,136.922222 C1737.22886,137.010833 1737.30078,137.083333 1737.38949,137.083333 L1737.4686,137.083333 C1737.5573,137.083333 1737.62843,137.010833 1737.62843,136.922222 L1737.62843,136.680556 L1739.82603,136.680556 L1739.82603,136.922222 C1739.82603,137.010833 1739.89795,137.083333 1739.98665,137.083333 L1740.06577,137.083333 C1740.15447,137.083333 1740.22559,137.010833 1740.22559,136.922222 L1740.22559,136.680556 L1742.4232,136.680556 L1742.4232,136.922222 C1742.4232,137.010833 1742.49512,137.083333 1742.58382,137.083333 L1742.66294,137.083333 C1742.75164,137.083333 1742.82276,137.010833 1742.82276,136.922222 L1742.82276,136.680556 L1743.0625,136.680556 C1743.15121,136.680556 1743.22233,136.608056 1743.22233,136.519444 L1743.22233,136.438889 C1743.22233,136.350278 1743.15121,136.277778 1743.0625,136.277778 L1743.0625,136.277778 Z M1740.02581,126.208333 C1741.12941,126.208333 1742.02363,125.937667 1742.02363,125.604167 C1742.02363,125.270667 1741.12941,125 1740.02581,125 C1738.92301,125 1738.02799,125.270667 1738.02799,125.604167 C1738.02799,125.937667 1738.92301,126.208333 1740.02581,126.208333 L1740.02581,126.208333 Z M1758.88605,130.840278 L1756.80752,130.840278 L1746.61863,132.420778 L1746.61863,133.629111 L1756.80752,132.048611 L1758.88605,132.048611 C1759.06186,132.048611 1759.20491,131.904417 1759.20491,131.726389 L1759.20491,131.1625 C1759.20491,130.984472 1759.06186,130.840278 1758.88605,130.840278 L1758.88605,130.840278 Z M1757.16793,130.638889 L1758.8453,130.638889 C1758.934,130.638889 1759.00512,130.566389 1759.00512,130.477778 L1759.00512,129.994444 C1759.00512,129.905833 1758.934,129.833333 1758.8453,129.833333 L1757.16793,129.833333 C1757.07922,129.833333 1757.0073,129.905833 1757.0073,129.994444 L1757.0073,130.477778 C1757.0073,130.566389 1757.07922,130.638889 1757.16793,130.638889 L1757.16793,130.638889 Z M1759.00512,128.947222 C1759.00512,128.769194 1758.86208,128.625 1758.68627,128.625 L1757.32695,128.625 C1757.15115,128.625 1757.0073,128.769194 1757.0073,128.947222 L1757.0073,129.631944 L1759.00512,129.631944 L1759.00512,128.947222 Z M1763.68083,128.826389 L1759.20491,128.826389 L1759.20491,129.631944 L1763.68083,129.631944 C1763.85664,129.631944 1763.99968,129.48775 1763.99968,129.309722 L1763.99968,129.148611 C1763.99968,128.970583 1763.85664,128.826389 1763.68083,128.826389 L1763.68083,128.826389 Z M1752.01275,129.148611 L1752.01275,129.309722 C1752.01275,129.48775 1752.15659,129.631944 1752.3324,129.631944 L1756.80752,129.631944 L1756.80752,128.826389 L1752.3324,128.826389 C1752.15659,128.826389 1752.01275,128.970583 1752.01275,129.148611 L1752.01275,129.148611 Z M1747.41775,129.934028 L1744.29716,131.507278 L1745.36239,131.775528 L1748.0171,130.4375 L1749.09672,130.4375 C1749.27253,130.4375 1749.41558,130.293306 1749.41558,130.115278 L1749.41558,129.551389 C1749.41558,129.373361 1749.27253,129.229167 1749.09672,129.229167 L1747.73741,129.229167 C1747.5616,129.229167 1747.41775,129.373361 1747.41775,129.551389 L1747.41775,129.934028 Z M1747.77816,129.027778 L1749.05597,129.027778 C1749.14467,129.027778 1749.21579,128.955278 1749.21579,128.866667 L1749.21579,128.383333 C1749.21579,128.294722 1749.14467,128.222222 1749.05597,128.222222 L1747.77816,128.222222 C1747.68946,128.222222 1747.61754,128.294722 1747.61754,128.383333 L1747.61754,128.866667 C1747.61754,128.955278 1747.68946,129.027778 1747.77816,129.027778 L1747.77816,129.027778 Z M1749.21579,127.336111 C1749.21579,127.158083 1749.07275,127.013889 1748.89694,127.013889 L1747.93719,127.013889 C1747.76138,127.013889 1747.61754,127.158083 1747.61754,127.336111 L1747.61754,128.020833 L1749.21579,128.020833 L1749.21579,127.336111 Z M1752.61209,127.698611 L1752.61209,127.5375 C1752.61209,127.359472 1752.46905,127.215278 1752.29324,127.215278 L1749.41558,127.215278 L1749.41558,128.020833 L1752.29324,128.020833 C1752.46905,128.020833 1752.61209,127.876639 1752.61209,127.698611 L1752.61209,127.698611 Z M1744.54089,128.020833 L1747.41775,128.020833 L1747.41775,127.215278 L1744.54089,127.215278 C1744.36508,127.215278 1744.22124,127.359472 1744.22124,127.5375 L1744.22124,127.698611 C1744.22124,127.876639 1744.36508,128.020833 1744.54089,128.020833 L1744.54089,128.020833 Z M1733.38105,132.420778 L1723.19216,130.840278 L1721.11443,130.840278 C1720.93782,130.840278 1720.79477,130.984472 1720.79477,131.1625 L1720.79477,131.726389 C1720.79477,131.904417 1720.93782,132.048611 1721.11443,132.048611 L1723.19216,132.048611 L1733.38105,133.629111 L1733.38105,132.420778 Z M1721.15438,130.638889 L1722.83255,130.638889 C1722.92046,130.638889 1722.99238,130.566389 1722.99238,130.477778 L1722.99238,129.994444 C1722.99238,129.905833 1722.92046,129.833333 1722.83255,129.833333 L1721.15438,129.833333 C1721.06568,129.833333 1720.99456,129.905833 1720.99456,129.994444 L1720.99456,130.477778 C1720.99456,130.566389 1721.06568,130.638889 1721.15438,130.638889 L1721.15438,130.638889 Z M1722.99238,128.947222 C1722.99238,128.769194 1722.84933,128.625 1722.67273,128.625 L1721.31421,128.625 C1721.1376,128.625 1720.99456,128.769194 1720.99456,128.947222 L1720.99456,129.631944 L1722.99238,129.631944 L1722.99238,128.947222 Z M1720.79477,128.826389 L1716.31965,128.826389 C1716.14304,128.826389 1716,128.970583 1716,129.148611 L1716,129.309722 C1716,129.48775 1716.14304,129.631944 1716.31965,129.631944 L1720.79477,129.631944 L1720.79477,128.826389 Z M1727.98693,129.309722 L1727.98693,129.148611 C1727.98693,128.970583 1727.84389,128.826389 1727.66728,128.826389 L1723.19216,128.826389 L1723.19216,129.631944 L1727.66728,129.631944 C1727.84389,129.631944 1727.98693,129.48775 1727.98693,129.309722 L1727.98693,129.309722 Z M1730.5841,130.115278 C1730.5841,130.293306 1730.72715,130.4375 1730.90375,130.4375 L1731.98258,130.4375 L1734.63729,131.775528 L1735.70332,131.507278 L1732.58193,129.934028 L1732.58193,129.551389 C1732.58193,129.373361 1732.43888,129.229167 1732.26227,129.229167 L1730.90375,129.229167 C1730.72715,129.229167 1730.5841,129.373361 1730.5841,129.551389 L1730.5841,130.115278 Z M1730.94371,129.027778 L1732.22232,129.027778 C1732.31022,129.027778 1732.38214,128.955278 1732.38214,128.866667 L1732.38214,128.383333 C1732.38214,128.294722 1732.31022,128.222222 1732.22232,128.222222 L1730.94371,128.222222 C1730.85501,128.222222 1730.78389,128.294722 1730.78389,128.383333 L1730.78389,128.866667 C1730.78389,128.955278 1730.85501,129.027778 1730.94371,129.027778 L1730.94371,129.027778 Z M1732.38214,127.336111 C1732.38214,127.158083 1732.2391,127.013889 1732.06249,127.013889 L1731.10354,127.013889 C1730.92693,127.013889 1730.78389,127.158083 1730.78389,127.336111 L1730.78389,128.020833 L1732.38214,128.020833 L1732.38214,127.336111 Z M1727.70724,128.020833 L1730.5841,128.020833 L1730.5841,127.215278 L1727.70724,127.215278 C1727.53063,127.215278 1727.38759,127.359472 1727.38759,127.5375 L1727.38759,127.698611 C1727.38759,127.876639 1727.53063,128.020833 1727.70724,128.020833 L1727.70724,128.020833 Z M1735.77844,127.698611 L1735.77844,127.5375 C1735.77844,127.359472 1735.6354,127.215278 1735.45879,127.215278 L1732.58193,127.215278 L1732.58193,128.020833 L1735.45879,128.020833 C1735.6354,128.020833 1735.77844,127.876639 1735.77844,127.698611 L1735.77844,127.698611 Z M1743.26628,134.863222 L1743.20315,134.868056 L1742.95782,134.868056 L1749.52586,152.189111 C1749.74562,151.942611 1750.06047,151.784722 1750.41449,151.784722 C1750.47682,151.784722 1750.53596,151.794389 1750.59509,151.802444 L1744.07819,134.658611 L1743.26628,134.863222 Z M1750.41449,151.986111 C1749.86309,151.986111 1749.41558,152.437222 1749.41558,152.993056 C1749.41558,153.548889 1749.86309,154 1750.41449,154 C1750.96669,154 1751.4134,153.548889 1751.4134,152.993056 C1751.4134,152.437222 1750.96669,151.986111 1750.41449,151.986111 L1750.41449,151.986111 Z M1729.61316,151.784722 C1729.96797,151.784722 1730.28283,151.942611 1730.50179,152.189111 L1737.06983,134.868056 L1736.8253,134.868056 L1736.76297,134.857583 L1735.95185,134.652972 L1729.43336,151.802444 C1729.49249,151.794389 1729.55163,151.784722 1729.61316,151.784722 L1729.61316,151.784722 Z M1729.61316,151.986111 C1729.06176,151.986111 1728.61425,152.437222 1728.61425,152.993056 C1728.61425,153.548889 1729.06176,154 1729.61316,154 C1730.16536,154 1730.61207,153.548889 1730.61207,152.993056 C1730.61207,152.437222 1730.16536,151.986111 1729.61316,151.986111 L1729.61316,151.986111 Z" id="Page-1" fill="#707473"></path>
            <g id="Slices" transform="translate(390.000000, 114.000000)"></g>
        </g>
    </g>
</svg>