<?xml version="1.0" encoding="UTF-8"?>
<svg width="60px" height="48px" viewBox="0 0 60 48" version="1.1" xmlns="http://www.w3.org/2000/svg" xmlns:xlink="http://www.w3.org/1999/xlink">
    <!-- Generator: Sketch 48.2 (47327) - http://www.bohemiancoding.com/sketch -->
    <title>Guava@1x</title>
    <desc>Created with Sketch.</desc>
    <defs></defs>
    <g id="Page-1" stroke="none" stroke-width="1" fill="none" fill-rule="evenodd">
        <g id="Guava" fill="#707473">
            <path d="M30,24.5 C29.563,24.5 29.2083333,24.864 29.2083333,25.3125 C29.2083333,25.761 29.563,26.125 30,26.125 C30.437,26.125 30.7916667,25.761 30.7916667,25.3125 C30.7916667,24.864 30.437,24.5 30,24.5 Z M30,26.53125 C29.3437083,26.53125 28.8125,25.98525 28.8125,25.3125 C28.8125,24.6389375 29.3437083,24.09375 30,24.09375 C30.6555,24.09375 31.1875,24.6389375 31.1875,25.3125 C31.1875,25.98525 30.6555,26.53125 30,26.53125 Z M33.0479167,23.890625 L26.9520833,23.890625 C26.777125,23.890625 26.6354167,24.0360625 26.6354167,24.215625 L26.6354167,26.857875 C26.6354167,27.0374375 26.777125,27.182875 26.9520833,27.182875 L33.0479167,27.182875 C33.222875,27.182875 33.3645833,27.0374375 33.3645833,26.857875 L33.3645833,24.215625 C33.3645833,24.0360625 33.222875,23.890625 33.0479167,23.890625 Z M40.6875,26.3525 L35.4308333,25.813 C35.2693333,25.79675 35.1458333,25.657 35.1458333,25.489625 L35.1458333,24.292 C35.1458333,24.0620625 35.37225,23.9044375 35.5804583,23.98975 L40.6875,26.0868125 L40.6875,26.3525 Z M33.5625,26.9375 L33.5625,27.3949375 L26.4375,27.3949375 L26.4375,26.9375 L26.4375,24.06125 L26.6480833,23.8215625 C26.7668333,23.685875 26.9275417,23.6095 27.0961667,23.6095 L32.9038333,23.6095 C33.0724583,23.6095 33.2331667,23.685875 33.3519167,23.8215625 L33.5625,24.06125 L33.5625,26.9375 Z M24.8541667,25.489625 C24.8541667,25.657 24.7306667,25.79675 24.5691667,25.813 L19.3125,26.3525 L19.3125,26.0868125 L24.4195417,23.98975 C24.62775,23.9044375 24.8541667,24.0620625 24.8541667,24.292 L24.8541667,25.489625 Z M44.5270833,24.5 L44.25,24.5 L44.25,20.4375 L41.875,20.4375 L41.875,24.5 L41.5979167,24.5 C41.4229583,24.5 41.28125,24.6454375 41.28125,24.825 L41.28125,25.018375 L35.4260833,22.6141875 C35.403125,22.574375 35.3865,22.5296875 35.3564167,22.49475 L34.0842083,21.043625 C33.9995,20.9469375 33.8989583,20.881125 33.7825833,20.8510625 C33.3313333,20.7340625 32.0227083,20.4480625 30,20.4480625 C27.9772917,20.4480625 26.6686667,20.7340625 26.2174167,20.8510625 C26.10025,20.881125 26.0005,20.9469375 25.9157917,21.043625 L24.6435833,22.49475 C24.6135,22.5296875 24.596875,22.574375 24.5739167,22.6141875 L18.71875,25.018375 L18.71875,24.825 C18.71875,24.6454375 18.5770417,24.5 18.4020833,24.5 L18.125,24.5 L18.125,20.4375 L15.75,20.4375 L15.75,24.5 L15.4729167,24.5 C15.2979583,24.5 15.15625,24.6454375 15.15625,24.825 L15.15625,28.2375 C15.15625,28.4170625 15.2979583,28.5625 15.4729167,28.5625 L15.3541667,28.5625 L15.5520833,31 L17.7291667,31 L18.3229167,28.5625 L18.4020833,28.5625 C18.5770417,28.5625 18.71875,28.4170625 18.71875,28.2375 L18.71875,27.637875 L24.4583333,27.049625 L24.4583333,28.0936875 C24.4583333,28.374 24.6325,28.6218125 24.891375,28.710375 L26.7359583,29.3416875 C26.8000833,29.363625 26.8681667,29.375 26.93625,29.375 L33.06375,29.375 C33.1318333,29.375 33.1999167,29.363625 33.2640417,29.3416875 L35.108625,28.710375 C35.3675,28.6218125 35.5416667,28.374 35.5416667,28.0936875 L35.5416667,27.049625 L41.28125,27.637875 L41.28125,28.2375 C41.28125,28.4170625 41.4229583,28.5625 41.5979167,28.5625 L41.6770833,28.5625 L42.2708333,31 L44.3655833,31 L44.5635,28.5625 L44.5270833,28.5625 C44.7020417,28.5625 44.84375,28.4170625 44.84375,28.2375 L44.84375,24.825 C44.84375,24.6454375 44.7020417,24.5 44.5270833,24.5 Z M48.6833333,18.8125 L43.8541667,18.8125 L43.8541667,19.625 L48.6833333,19.625 C48.8582917,19.625 49,19.4795625 49,19.3 L49,19.1375 C49,18.9579375 48.8582917,18.8125 48.6833333,18.8125 Z M16.1458333,18.8125 L11.3166667,18.8125 C11.1417083,18.8125 11,18.9579375 11,19.1375 L11,19.3 C11,19.4795625 11.1417083,19.625 11.3166667,19.625 L16.1458333,19.625 L16.1458333,18.8125 Z M43.65625,18.325 C43.65625,18.1454375 43.5145417,18 43.3395833,18 L42.7854167,18 C42.6104583,18 42.46875,18.1454375 42.46875,18.325 L42.46875,20.234375 L43.65625,20.234375 L43.65625,18.325 Z M37.4416667,19.625 L42.2708333,19.625 L42.2708333,18.8125 L37.4416667,18.8125 C37.2667083,18.8125 37.125,18.9579375 37.125,19.1375 L37.125,19.3 C37.125,19.4795625 37.2667083,19.625 37.4416667,19.625 Z M22.875,19.3 L22.875,19.1375 C22.875,18.9579375 22.7332917,18.8125 22.5583333,18.8125 L17.7291667,18.8125 L17.7291667,19.625 L22.5583333,19.625 C22.7332917,19.625 22.875,19.4795625 22.875,19.3 Z M17.53125,18.325 C17.53125,18.1454375 17.3895417,18 17.2145833,18 L16.6604167,18 C16.4854583,18 16.34375,18.1454375 16.34375,18.325 L16.34375,20.234375 L17.53125,20.234375 L17.53125,18.325 Z" id="Page-1"></path>
        </g>
    </g>
</svg>